<?xml version="1.0" encoding="UTF-8" standalone="no"?>
<!-- Created with Inkscape (http://www.inkscape.org/) -->

<svg
   xmlns:dc="http://purl.org/dc/elements/1.1/"
   xmlns:cc="http://creativecommons.org/ns#"
   xmlns:rdf="http://www.w3.org/1999/02/22-rdf-syntax-ns#"
   xmlns:svg="http://www.w3.org/2000/svg"
   xmlns="http://www.w3.org/2000/svg"
   xmlns:sodipodi="http://sodipodi.sourceforge.net/DTD/sodipodi-0.dtd"
   xmlns:inkscape="http://www.inkscape.org/namespaces/inkscape"
   id="svg2"
   version="1.1"
   inkscape:version="0.91 r13725"
   xml:space="preserve"
   width="922.95056"
   height="320.07285"
   viewBox="0 0 922.95054 320.07284"
   sodipodi:docname="bar_chart_include_trans.svg"><metadata
     id="metadata8"><rdf:RDF><cc:Work
         rdf:about=""><dc:format>image/svg+xml</dc:format><dc:type
           rdf:resource="http://purl.org/dc/dcmitype/StillImage" /><dc:title></dc:title></cc:Work></rdf:RDF></metadata><defs
     id="defs6"><clipPath
       clipPathUnits="userSpaceOnUse"
       id="clipPath42"><path
         d="m 51.12,167.64 739.44,0 0,260.28 -739.44,0 0,-260.28 z"
         id="path44"
         inkscape:connector-curvature="0"
         style="clip-rule:evenodd" /></clipPath><clipPath
       clipPathUnits="userSpaceOnUse"
       id="clipPath54"><path
         d="m 51.12,167.64 739.44,0 0,260.28 -739.44,0 0,-260.28 z"
         id="path56"
         inkscape:connector-curvature="0"
         style="clip-rule:evenodd" /></clipPath><clipPath
       clipPathUnits="userSpaceOnUse"
       id="clipPath62"><path
         d="m 51.12,167.64 739.44,0 0,260.28 -739.44,0 0,-260.28 z"
         id="path64"
         inkscape:connector-curvature="0"
         style="clip-rule:evenodd" /></clipPath><clipPath
       clipPathUnits="userSpaceOnUse"
       id="clipPath74"><path
         d="m 51.12,167.64 739.44,0 0,260.28 -739.44,0 0,-260.28 z"
         id="path76"
         inkscape:connector-curvature="0"
         style="clip-rule:evenodd" /></clipPath><clipPath
       clipPathUnits="userSpaceOnUse"
       id="clipPath86"><path
         d="m 51.12,167.64 739.44,0 0,260.28 -739.44,0 0,-260.28 z"
         id="path88"
         inkscape:connector-curvature="0"
         style="clip-rule:evenodd" /></clipPath><clipPath
       clipPathUnits="userSpaceOnUse"
       id="clipPath98"><path
         d="m 51.12,167.64 739.44,0 0,260.28 -739.44,0 0,-260.28 z"
         id="path100"
         inkscape:connector-curvature="0"
         style="clip-rule:evenodd" /></clipPath><clipPath
       clipPathUnits="userSpaceOnUse"
       id="clipPath106"><path
         d="m 51.12,167.64 739.44,0 0,260.28 -739.44,0 0,-260.28 z"
         id="path108"
         inkscape:connector-curvature="0"
         style="clip-rule:evenodd" /></clipPath><clipPath
       clipPathUnits="userSpaceOnUse"
       id="clipPath118"><path
         d="m 51.12,167.64 739.44,0 0,260.28 -739.44,0 0,-260.28 z"
         id="path120"
         inkscape:connector-curvature="0"
         style="clip-rule:evenodd" /></clipPath><clipPath
       clipPathUnits="userSpaceOnUse"
       id="clipPath130"><path
         d="m 51.12,167.64 739.44,0 0,260.28 -739.44,0 0,-260.28 z"
         id="path132"
         inkscape:connector-curvature="0"
         style="clip-rule:evenodd" /></clipPath><clipPath
       clipPathUnits="userSpaceOnUse"
       id="clipPath142"><path
         d="m 51.12,167.64 739.44,0 0,260.28 -739.44,0 0,-260.28 z"
         id="path144"
         inkscape:connector-curvature="0"
         style="clip-rule:evenodd" /></clipPath><clipPath
       clipPathUnits="userSpaceOnUse"
       id="clipPath150"><path
         d="m 51.12,167.64 739.44,0 0,260.28 -739.44,0 0,-260.28 z"
         id="path152"
         inkscape:connector-curvature="0"
         style="clip-rule:evenodd" /></clipPath><clipPath
       clipPathUnits="userSpaceOnUse"
       id="clipPath158"><path
         d="m 51.12,167.64 739.44,0 0,260.28 -739.44,0 0,-260.28 z"
         id="path160"
         inkscape:connector-curvature="0"
         style="clip-rule:evenodd" /></clipPath><clipPath
       clipPathUnits="userSpaceOnUse"
       id="clipPath170"><path
         d="m 51.12,167.64 739.44,0 0,260.28 -739.44,0 0,-260.28 z"
         id="path172"
         inkscape:connector-curvature="0"
         style="clip-rule:evenodd" /></clipPath><clipPath
       clipPathUnits="userSpaceOnUse"
       id="clipPath182"><path
         d="m 51.12,167.64 739.44,0 0,260.28 -739.44,0 0,-260.28 z"
         id="path184"
         inkscape:connector-curvature="0"
         style="clip-rule:evenodd" /></clipPath><clipPath
       clipPathUnits="userSpaceOnUse"
       id="clipPath194"><path
         d="m 51.12,167.64 739.44,0 0,260.28 -739.44,0 0,-260.28 z"
         id="path196"
         inkscape:connector-curvature="0"
         style="clip-rule:evenodd" /></clipPath><clipPath
       clipPathUnits="userSpaceOnUse"
       id="clipPath202"><path
         d="m 51.12,167.64 739.44,0 0,260.28 -739.44,0 0,-260.28 z"
         id="path204"
         inkscape:connector-curvature="0"
         style="clip-rule:evenodd" /></clipPath><clipPath
       clipPathUnits="userSpaceOnUse"
       id="clipPath214"><path
         d="m 51.12,167.64 739.44,0 0,260.28 -739.44,0 0,-260.28 z"
         id="path216"
         inkscape:connector-curvature="0"
         style="clip-rule:evenodd" /></clipPath><clipPath
       clipPathUnits="userSpaceOnUse"
       id="clipPath226"><path
         d="m 51.12,167.64 739.44,0 0,260.28 -739.44,0 0,-260.28 z"
         id="path228"
         inkscape:connector-curvature="0"
         style="clip-rule:evenodd" /></clipPath><clipPath
       clipPathUnits="userSpaceOnUse"
       id="clipPath238"><path
         d="m 51.12,167.64 739.44,0 0,260.28 -739.44,0 0,-260.28 z"
         id="path240"
         inkscape:connector-curvature="0"
         style="clip-rule:evenodd" /></clipPath><clipPath
       clipPathUnits="userSpaceOnUse"
       id="clipPath246"><path
         d="m 51.12,167.64 739.44,0 0,260.28 -739.44,0 0,-260.28 z"
         id="path248"
         inkscape:connector-curvature="0"
         style="clip-rule:evenodd" /></clipPath><clipPath
       clipPathUnits="userSpaceOnUse"
       id="clipPath258"><path
         d="m 51.12,167.64 739.44,0 0,260.28 -739.44,0 0,-260.28 z"
         id="path260"
         inkscape:connector-curvature="0"
         style="clip-rule:evenodd" /></clipPath><clipPath
       clipPathUnits="userSpaceOnUse"
       id="clipPath266"><path
         d="m 51.133,167.59 739.48,0 0,260.33 -739.48,0 0,-260.33 z"
         id="path268"
         inkscape:connector-curvature="0"
         style="clip-rule:evenodd" /></clipPath><clipPath
       clipPathUnits="userSpaceOnUse"
       id="clipPath276"><path
         d="m 51.133,167.59 739.48,0 0,260.33 -739.48,0 0,-260.33 z"
         id="path278"
         inkscape:connector-curvature="0"
         style="clip-rule:evenodd" /></clipPath><clipPath
       clipPathUnits="userSpaceOnUse"
       id="clipPath286"><path
         d="m 51.12,167.64 739.44,0 0,260.28 -739.44,0 0,-260.28 z"
         id="path288"
         inkscape:connector-curvature="0"
         style="clip-rule:evenodd" /></clipPath><clipPath
       clipPathUnits="userSpaceOnUse"
       id="clipPath298"><path
         d="m 51.12,167.64 739.44,0 0,260.28 -739.44,0 0,-260.28 z"
         id="path300"
         inkscape:connector-curvature="0"
         style="clip-rule:evenodd" /></clipPath><clipPath
       clipPathUnits="userSpaceOnUse"
       id="clipPath306"><path
         d="m 51.12,167.64 739.44,0 0,260.28 -739.44,0 0,-260.28 z"
         id="path308"
         inkscape:connector-curvature="0"
         style="clip-rule:evenodd" /></clipPath><clipPath
       clipPathUnits="userSpaceOnUse"
       id="clipPath318"><path
         d="m 51.12,167.64 739.44,0 0,260.28 -739.44,0 0,-260.28 z"
         id="path320"
         inkscape:connector-curvature="0"
         style="clip-rule:evenodd" /></clipPath><clipPath
       clipPathUnits="userSpaceOnUse"
       id="clipPath326"><path
         d="m 51.12,167.64 739.44,0 0,260.28 -739.44,0 0,-260.28 z"
         id="path328"
         inkscape:connector-curvature="0"
         style="clip-rule:evenodd" /></clipPath><clipPath
       clipPathUnits="userSpaceOnUse"
       id="clipPath338"><path
         d="m 51.12,167.64 739.44,0 0,260.28 -739.44,0 0,-260.28 z"
         id="path340"
         inkscape:connector-curvature="0"
         style="clip-rule:evenodd" /></clipPath><clipPath
       clipPathUnits="userSpaceOnUse"
       id="clipPath350"><path
         d="m 51.12,167.64 739.44,0 0,260.28 -739.44,0 0,-260.28 z"
         id="path352"
         inkscape:connector-curvature="0"
         style="clip-rule:evenodd" /></clipPath><clipPath
       clipPathUnits="userSpaceOnUse"
       id="clipPath362"><path
         d="m 51.12,167.64 739.44,0 0,260.28 -739.44,0 0,-260.28 z"
         id="path364"
         inkscape:connector-curvature="0"
         style="clip-rule:evenodd" /></clipPath><clipPath
       clipPathUnits="userSpaceOnUse"
       id="clipPath374"><path
         d="m 51.12,167.64 739.44,0 0,260.28 -739.44,0 0,-260.28 z"
         id="path376"
         inkscape:connector-curvature="0"
         style="clip-rule:evenodd" /></clipPath><clipPath
       clipPathUnits="userSpaceOnUse"
       id="clipPath386"><path
         d="m 51.12,167.64 739.44,0 0,260.28 -739.44,0 0,-260.28 z"
         id="path388"
         inkscape:connector-curvature="0"
         style="clip-rule:evenodd" /></clipPath><clipPath
       clipPathUnits="userSpaceOnUse"
       id="clipPath398"><path
         d="m 51.12,167.64 739.44,0 0,260.28 -739.44,0 0,-260.28 z"
         id="path400"
         inkscape:connector-curvature="0"
         style="clip-rule:evenodd" /></clipPath><clipPath
       clipPathUnits="userSpaceOnUse"
       id="clipPath410"><path
         d="m 51.12,167.64 739.44,0 0,260.28 -739.44,0 0,-260.28 z"
         id="path412"
         inkscape:connector-curvature="0"
         style="clip-rule:evenodd" /></clipPath><clipPath
       clipPathUnits="userSpaceOnUse"
       id="clipPath422"><path
         d="m 51.12,167.64 739.44,0 0,260.28 -739.44,0 0,-260.28 z"
         id="path424"
         inkscape:connector-curvature="0"
         style="clip-rule:evenodd" /></clipPath><clipPath
       clipPathUnits="userSpaceOnUse"
       id="clipPath434"><path
         d="m 51.12,167.64 739.44,0 0,260.28 -739.44,0 0,-260.28 z"
         id="path436"
         inkscape:connector-curvature="0"
         style="clip-rule:evenodd" /></clipPath><clipPath
       clipPathUnits="userSpaceOnUse"
       id="clipPath446"><path
         d="m 51.12,167.64 739.44,0 0,260.28 -739.44,0 0,-260.28 z"
         id="path448"
         inkscape:connector-curvature="0"
         style="clip-rule:evenodd" /></clipPath></defs><sodipodi:namedview
     pagecolor="#ffffff"
     bordercolor="#666666"
     borderopacity="1"
     objecttolerance="10"
     gridtolerance="10"
     guidetolerance="10"
     inkscape:pageopacity="0"
     inkscape:pageshadow="2"
     inkscape:window-width="1920"
     inkscape:window-height="1147"
     id="namedview4"
     showgrid="false"
     fit-margin-top="10"
     fit-margin-left="10"
     fit-margin-right="10"
     fit-margin-bottom="10"
     inkscape:zoom="1.2685614"
     inkscape:cx="394.51142"
     inkscape:cy="142.9151"
     inkscape:window-x="-8"
     inkscape:window-y="-8"
     inkscape:window-maximized="1"
     inkscape:current-layer="g10" /><g
     id="g10"
     inkscape:groupmode="layer"
     inkscape:label="bar_chart_include_trans"
     transform="matrix(1.25,0,0,-1.25,-75.315664,527.95)"><path
       d="m 78,201.6 651.72,0 0,212.76 -651.72,0 0,-212.76 z"
       style="fill:#ffffff;fill-opacity:1;fill-rule:evenodd;stroke:none"
       id="path14"
       inkscape:connector-curvature="0" /><path
       d="M 78,414.36 78,201.6 m 65.16,212.76 0,-212.76 m 65.16,212.76 0,-212.76 m 65.16,212.76 0,-212.76 m 65.16,212.76 0,-212.76 m 65.16,212.76 0,-212.76 m 65.28,212.76 0,-212.76 m 65.16,212.76 0,-212.76 m 65.16,212.76 0,-212.76 m 65.16,212.76 0,-212.76 m 65.16,212.76 0,-212.76"
       style="fill:none;stroke:#868686;stroke-width:1.20000005;stroke-linecap:butt;stroke-linejoin:round;stroke-miterlimit:10;stroke-dasharray:none;stroke-opacity:1"
       id="path16"
       inkscape:connector-curvature="0" /><path
       d="m 78,265.44 367.2,0 0,85.08 -367.2,0 0,-85.08 z"
       style="fill:#4572a7;fill-opacity:1;fill-rule:nonzero;stroke:none"
       id="path18"
       inkscape:connector-curvature="0" /><path
       d="m 445.2,265.44 168.48,0 0,85.08 -168.48,0 0,-85.08 z"
       style="fill:#aa4643;fill-opacity:1;fill-rule:nonzero;stroke:none"
       id="path20"
       inkscape:connector-curvature="0" /><path
       d="m 613.68,265.44 40.56,0 0,85.08 -40.56,0 0,-85.08 z"
       style="fill:#89a54e;fill-opacity:1;fill-rule:nonzero;stroke:none"
       id="path22"
       inkscape:connector-curvature="0" /><path
       d="m 654.24,265.44 38.4,0 0,85.08 -38.4,0 0,-85.08 z"
       style="fill:#71588f;fill-opacity:1;fill-rule:nonzero;stroke:none"
       id="path24"
       inkscape:connector-curvature="0" /><path
       d="m 692.64,265.44 26.16,0 0,85.08 -26.16,0 0,-85.08 z"
       style="fill:#4198af;fill-opacity:1;fill-rule:nonzero;stroke:none"
       id="path26"
       inkscape:connector-curvature="0" /><path
       d="m 718.8,265.44 10.92,0 0,85.08 -10.92,0 0,-85.08 z"
       style="fill:#db843d;fill-opacity:1;fill-rule:nonzero;stroke:none"
       id="path28"
       inkscape:connector-curvature="0" /><path
       d="m 78,201.6 651.72,0"
       style="fill:none;stroke:#868686;stroke-width:1.20000005;stroke-linecap:butt;stroke-linejoin:round;stroke-miterlimit:10;stroke-dasharray:none;stroke-opacity:1"
       id="path30"
       inkscape:connector-curvature="0" /><path
       d="m 78,201.6 0,-5.4 m 65.16,5.4 0,-5.4 m 65.16,5.4 0,-5.4 m 65.16,5.4 0,-5.4 m 65.16,5.4 0,-5.4 m 65.16,5.4 0,-5.4 m 65.28,5.4 0,-5.4 m 65.16,5.4 0,-5.4 m 65.16,5.4 0,-5.4 m 65.16,5.4 0,-5.4 m 65.16,5.4 0,-5.4"
       style="fill:none;stroke:#868686;stroke-width:1.20000005;stroke-linecap:butt;stroke-linejoin:round;stroke-miterlimit:10;stroke-dasharray:none;stroke-opacity:1"
       id="path32"
       inkscape:connector-curvature="0" /><path
       d="m 209.08,363.43 61.274,0 0,46.712 -61.274,0 0,-46.712 z"
       style="fill:#ffffff;fill-opacity:1;fill-rule:evenodd;stroke:none"
       id="path34"
       inkscape:connector-curvature="0" /><path
       d="m 209.08,363.43 61.274,0 0,46.712 -61.274,0 0,-46.712 z"
       style="fill:none;stroke:#ff0000;stroke-width:1.27810001;stroke-linecap:butt;stroke-linejoin:round;stroke-miterlimit:10;stroke-dasharray:none;stroke-opacity:1"
       id="path36"
       inkscape:connector-curvature="0" /><g
       id="g38"
       style="fill:#ff0000;stroke:#ff0000"><g
         id="g40"
         clip-path="url(#clipPath42)"
         style="fill:#ff0000;stroke:#ff0000"><text
           transform="matrix(1,0,0,-1,215.95,391.39)"
           style="font-variant:normal;font-weight:normal;font-size:16.99200058px;font-family:Calibri;-inkscape-font-specification:Calibri;writing-mode:lr-tb;fill:#ff0000;fill-opacity:1;fill-rule:nonzero;stroke:#ff0000"
           id="text46"><tspan
             x="0 7.7993279 15.530688 29.022335 39.659328"
             y="0"
             sodipodi:role="line"
             id="tspan48">SymGS</tspan></text>
</g></g><g
       id="g50"><g
         id="g52"
         clip-path="url(#clipPath54)" /></g><g
       id="g58"><g
         id="g60"
         clip-path="url(#clipPath62)"><text
           transform="matrix(1,0,0,-1,214.32,370.51)"
           style="font-variant:normal;font-weight:normal;font-size:16.99200058px;font-family:Calibri;-inkscape-font-specification:Calibri;writing-mode:lr-tb;fill:#000000;fill-opacity:1;fill-rule:nonzero;stroke:none"
           id="text66"><tspan
             x="0 8.6149445 17.229889 21.511871 30.07584 38.690784"
             y="0"
             sodipodi:role="line"
             id="tspan68">56.34%</tspan></text>
</g></g><g
       id="g70"><g
         id="g72"
         clip-path="url(#clipPath74)" /></g><path
       d="m 500.36,361.91 61.274,0 0,46.712 -61.274,0 0,-46.712 z"
       style="fill:#ffffff;fill-opacity:1;fill-rule:evenodd;stroke:#ff0000"
       id="path78"
       inkscape:connector-curvature="0" /><g
       id="g82"
       style="fill:#ff0000;stroke:#ff0000"><g
         id="g84"
         clip-path="url(#clipPath86)"
         style="fill:#ff0000;stroke:#ff0000"><text
           transform="matrix(1,0,0,-1,510.53,389.86)"
           style="font-variant:normal;font-weight:normal;font-size:16.96800041px;font-family:Calibri;-inkscape-font-specification:Calibri;writing-mode:lr-tb;fill:#ff0000;fill-opacity:1;fill-rule:nonzero;stroke:#ff0000"
           id="text90"><tspan
             x="0 7.788312 16.764383 31.272024"
             y="0"
             sodipodi:role="line"
             id="tspan92">SpMV</tspan></text>
</g></g><g
       id="g94"><g
         id="g96"
         clip-path="url(#clipPath98)" /></g><g
       id="g102"><g
         id="g104"
         clip-path="url(#clipPath106)"><text
           transform="matrix(1,0,0,-1,505.63,369)"
           style="font-variant:normal;font-weight:normal;font-size:16.96800041px;font-family:Calibri;-inkscape-font-specification:Calibri;writing-mode:lr-tb;fill:#000000;fill-opacity:1;fill-rule:nonzero;stroke:none"
           id="text110"><tspan
             x="0 8.6027756 17.205551 21.481487 30.084265 38.687038"
             y="0"
             sodipodi:role="line"
             id="tspan112">25.86%</tspan></text>
</g></g><g
       id="g114"><g
         id="g116"
         clip-path="url(#clipPath118)" /></g><path
       d="m 582.72,363.23 89.964,0 0,46.712 -89.964,0 0,-46.712 z"
       style="fill:#ffffff;fill-opacity:1;fill-rule:evenodd;stroke:none"
       id="path122"
       inkscape:connector-curvature="0" /><path
       d="m 582.72,363.23 89.964,0 0,46.712 -89.964,0 0,-46.712 z"
       style="fill:none;stroke:#000000;stroke-width:1.27810001;stroke-linecap:butt;stroke-linejoin:round;stroke-miterlimit:10;stroke-dasharray:none;stroke-opacity:1"
       id="path124"
       inkscape:connector-curvature="0" /><g
       id="g126"><g
         id="g128"
         clip-path="url(#clipPath130)"><text
           transform="matrix(1,0,0,-1,587.81,391.18)"
           style="font-variant:normal;font-weight:normal;font-size:16.96800041px;font-family:Calibri;-inkscape-font-specification:Calibri;writing-mode:lr-tb;fill:#000000;fill-opacity:1;fill-rule:nonzero;stroke:none"
           id="text134"><tspan
             x="0 10.43532 19.377457 25.11264 33.885098 39.806927 48.799969 57.776039 66.752113 73.929573"
             y="0"
             sodipodi:role="line"
             id="tspan136">DotProduct</tspan></text>
</g></g><g
       id="g138"><g
         id="g140"
         clip-path="url(#clipPath142)" /></g><g
       id="g146"><g
         id="g148"
         clip-path="url(#clipPath150)" /></g><g
       id="g154"><g
         id="g156"
         clip-path="url(#clipPath158)"><text
           transform="matrix(1,0,0,-1,608.69,370.32)"
           style="font-variant:normal;font-weight:normal;font-size:16.96800041px;font-family:Calibri;-inkscape-font-specification:Calibri;writing-mode:lr-tb;fill:#000000;fill-opacity:1;fill-rule:nonzero;stroke:none"
           id="text162"><tspan
             x="0 8.6027756 12.878712 21.481487 30.084265"
             y="0"
             sodipodi:role="line"
             id="tspan164">6.22%</tspan></text>
</g></g><g
       id="g166"><g
         id="g168"
         clip-path="url(#clipPath170)" /></g><path
       d="m 636.65,214.68 70.468,0 0,46.712 -70.468,0 0,-46.712 z"
       style="fill:#ffffff;fill-opacity:1;fill-rule:evenodd;stroke:none"
       id="path174"
       inkscape:connector-curvature="0" /><path
       d="m 636.65,214.68 70.468,0 0,46.712 -70.468,0 0,-46.712 z"
       style="fill:none;stroke:#000000;stroke-width:1.27810001;stroke-linecap:butt;stroke-linejoin:round;stroke-miterlimit:10;stroke-dasharray:none;stroke-opacity:1"
       id="path176"
       inkscape:connector-curvature="0" /><g
       id="g178"><g
         id="g180"
         clip-path="url(#clipPath182)"><text
           transform="matrix(1,0,0,-1,642.02,242.62)"
           style="font-variant:normal;font-weight:normal;font-size:16.99200058px;font-family:Calibri;-inkscape-font-specification:Calibri;writing-mode:lr-tb;fill:#000000;fill-opacity:1;fill-rule:nonzero;stroke:none"
           id="text186"><tspan
             x="0 15.12288 24.961248 33.780094 42.56496 51.740639"
             y="0"
             sodipodi:role="line"
             id="tspan188">WAXPBY</tspan></text>
</g></g><g
       id="g190"><g
         id="g192"
         clip-path="url(#clipPath194)" /></g><g
       id="g198"><g
         id="g200"
         clip-path="url(#clipPath202)"><text
           transform="matrix(1,0,0,-1,650.83,221.74)"
           style="font-variant:normal;font-weight:normal;font-size:16.99200058px;font-family:Calibri;-inkscape-font-specification:Calibri;writing-mode:lr-tb;fill:#000000;fill-opacity:1;fill-rule:nonzero;stroke:none"
           id="text206"><tspan
             x="0 8.6149445 12.896928 21.511871 30.07584"
             y="0"
             sodipodi:role="line"
             id="tspan208">5.91%</tspan></text>
</g></g><g
       id="g210"><g
         id="g212"
         clip-path="url(#clipPath214)" /></g><path
       d="m 671.56,363.23 99.559,0 0,46.712 -99.559,0 0,-46.712 z"
       style="fill:#ffffff;fill-opacity:1;fill-rule:evenodd;stroke:none"
       id="path218"
       inkscape:connector-curvature="0" /><path
       d="m 671.56,363.23 99.559,0 0,46.712 -99.559,0 0,-46.712 z"
       style="fill:none;stroke:#000000;stroke-width:1.27810001;stroke-linecap:butt;stroke-linejoin:round;stroke-miterlimit:10;stroke-dasharray:none;stroke-opacity:1"
       id="path220"
       inkscape:connector-curvature="0" /><g
       id="g222"><g
         id="g224"
         clip-path="url(#clipPath226)"><text
           transform="matrix(1,0,0,-1,676.75,391.18)"
           style="font-variant:normal;font-weight:normal;font-size:16.96800041px;font-family:Calibri;-inkscape-font-specification:Calibri;writing-mode:lr-tb;fill:#000000;fill-opacity:1;fill-rule:nonzero;stroke:none"
           id="text230"><tspan
             x="0 8.7724562 14.694288 23.687328 27.589968 36.532104 45.559078 53.551006 61.67868 67.362961 71.265602 80.275604"
             y="0"
             sodipodi:role="line"
             id="tspan232">Prolongation</tspan></text>
</g></g><g
       id="g234"><g
         id="g236"
         clip-path="url(#clipPath238)" /></g><g
       id="g242"><g
         id="g244"
         clip-path="url(#clipPath246)"><text
           transform="matrix(1,0,0,-1,700.27,370.32)"
           style="font-variant:normal;font-weight:normal;font-size:16.96800041px;font-family:Calibri;-inkscape-font-specification:Calibri;writing-mode:lr-tb;fill:#000000;fill-opacity:1;fill-rule:nonzero;stroke:none"
           id="text250"><tspan
             x="0 8.6027756 12.878712 21.481487 30.084265"
             y="0"
             sodipodi:role="line"
             id="tspan252">4.00%</tspan></text>
</g></g><g
       id="g254"><g
         id="g256"
         clip-path="url(#clipPath258)" /></g><g
       id="g262"><g
         id="g264"
         clip-path="url(#clipPath266)"><path
           d="m 705.87,214.68 84.954,0 0,46.712 -84.954,0 0,-46.712 z"
           style="fill:#ffffff;fill-opacity:1;fill-rule:evenodd;stroke:none"
           id="path270"
           inkscape:connector-curvature="0" /></g></g><g
       id="g272"><g
         id="g274"
         clip-path="url(#clipPath276)"><path
           d="m 705.87,214.68 84.954,0 0,46.712 -84.954,0 0,-46.712 z"
           style="fill:none;stroke:#000000;stroke-width:1.27810001;stroke-linecap:butt;stroke-linejoin:round;stroke-miterlimit:10;stroke-dasharray:none;stroke-opacity:1"
           id="path280"
           inkscape:connector-curvature="0" /></g></g><g
       id="g282"><g
         id="g284"
         clip-path="url(#clipPath286)"><text
           transform="matrix(1,0,0,-1,711.12,242.62)"
           style="font-variant:normal;font-weight:normal;font-size:16.99200058px;font-family:Calibri;-inkscape-font-specification:Calibri;writing-mode:lr-tb;fill:#000000;fill-opacity:1;fill-rule:nonzero;stroke:none"
           id="text290"><tspan
             x="0 9.226656 17.58672 24.145632 29.837952 35.768162 39.676319 46.863937 52.556255 56.464417 65.453186"
             y="0"
             sodipodi:role="line"
             id="tspan292">Restriction</tspan></text>
</g></g><g
       id="g294"><g
         id="g296"
         clip-path="url(#clipPath298)" /></g><g
       id="g302"><g
         id="g304"
         clip-path="url(#clipPath306)"><text
           transform="matrix(1,0,0,-1,727.3,221.74)"
           style="font-variant:normal;font-weight:normal;font-size:16.99200058px;font-family:Calibri;-inkscape-font-specification:Calibri;writing-mode:lr-tb;fill:#000000;fill-opacity:1;fill-rule:nonzero;stroke:none"
           id="text310"><tspan
             x="0 8.6149445 12.896928 21.511871 30.07584"
             y="0"
             sodipodi:role="line"
             id="tspan312">1.67%</tspan></text>
</g></g><g
       id="g314"><g
         id="g316"
         clip-path="url(#clipPath318)" /></g><g
       id="g322"><g
         id="g324"
         clip-path="url(#clipPath326)"><text
           transform="matrix(1,0,0,-1,67.656,174.6)"
           style="font-variant:normal;font-weight:normal;font-size:16.96800041px;font-family:Calibri;-inkscape-font-specification:Calibri;writing-mode:lr-tb;fill:#000000;fill-opacity:1;fill-rule:nonzero;stroke:none"
           id="text330"><tspan
             x="0 8.5919762"
             y="0"
             sodipodi:role="line"
             id="tspan332">0%</tspan></text>
</g></g><g
       id="g334"><g
         id="g336"
         clip-path="url(#clipPath338)"><text
           transform="matrix(1,0,0,-1,128.5,174.6)"
           style="font-variant:normal;font-weight:normal;font-size:16.96800041px;font-family:Calibri;-inkscape-font-specification:Calibri;writing-mode:lr-tb;fill:#000000;fill-opacity:1;fill-rule:nonzero;stroke:none"
           id="text342"><tspan
             x="0 8.6027756 17.375233"
             y="0"
             sodipodi:role="line"
             id="tspan344">10%</tspan></text>
</g></g><g
       id="g346"><g
         id="g348"
         clip-path="url(#clipPath350)"><text
           transform="matrix(1,0,0,-1,193.68,174.6)"
           style="font-variant:normal;font-weight:normal;font-size:16.96800041px;font-family:Calibri;-inkscape-font-specification:Calibri;writing-mode:lr-tb;fill:#000000;fill-opacity:1;fill-rule:nonzero;stroke:none"
           id="text354"><tspan
             x="0 8.6027756 17.358265"
             y="0"
             sodipodi:role="line"
             id="tspan356">20%</tspan></text>
</g></g><g
       id="g358"><g
         id="g360"
         clip-path="url(#clipPath362)"><text
           transform="matrix(1,0,0,-1,258.84,174.6)"
           style="font-variant:normal;font-weight:normal;font-size:16.96800041px;font-family:Calibri;-inkscape-font-specification:Calibri;writing-mode:lr-tb;fill:#000000;fill-opacity:1;fill-rule:nonzero;stroke:none"
           id="text366"><tspan
             x="0 8.6027756 17.358265"
             y="0"
             sodipodi:role="line"
             id="tspan368">30%</tspan></text>
</g></g><g
       id="g370"><g
         id="g372"
         clip-path="url(#clipPath374)"><text
           transform="matrix(1,0,0,-1,324.02,174.6)"
           style="font-variant:normal;font-weight:normal;font-size:16.96800041px;font-family:Calibri;-inkscape-font-specification:Calibri;writing-mode:lr-tb;fill:#000000;fill-opacity:1;fill-rule:nonzero;stroke:none"
           id="text378"><tspan
             x="0 8.6027756 17.341295"
             y="0"
             sodipodi:role="line"
             id="tspan380">40%</tspan></text>
</g></g><g
       id="g382"><g
         id="g384"
         clip-path="url(#clipPath386)"><text
           transform="matrix(1,0,0,-1,389.18,174.6)"
           style="font-variant:normal;font-weight:normal;font-size:16.96800041px;font-family:Calibri;-inkscape-font-specification:Calibri;writing-mode:lr-tb;fill:#000000;fill-opacity:1;fill-rule:nonzero;stroke:none"
           id="text390"><tspan
             x="0 8.6027756 17.358265"
             y="0"
             sodipodi:role="line"
             id="tspan392">50%</tspan></text>
</g></g><g
       id="g394"><g
         id="g396"
         clip-path="url(#clipPath398)"><text
           transform="matrix(1,0,0,-1,454.37,174.6)"
           style="font-variant:normal;font-weight:normal;font-size:16.96800041px;font-family:Calibri;-inkscape-font-specification:Calibri;writing-mode:lr-tb;fill:#000000;fill-opacity:1;fill-rule:nonzero;stroke:none"
           id="text402"><tspan
             x="0 8.6027756 17.341295"
             y="0"
             sodipodi:role="line"
             id="tspan404">60%</tspan></text>
</g></g><g
       id="g406"><g
         id="g408"
         clip-path="url(#clipPath410)"><text
           transform="matrix(1,0,0,-1,519.53,174.6)"
           style="font-variant:normal;font-weight:normal;font-size:16.96800041px;font-family:Calibri;-inkscape-font-specification:Calibri;writing-mode:lr-tb;fill:#000000;fill-opacity:1;fill-rule:nonzero;stroke:none"
           id="text414"><tspan
             x="0 8.6027756 17.358265"
             y="0"
             sodipodi:role="line"
             id="tspan416">70%</tspan></text>
</g></g><g
       id="g418"><g
         id="g420"
         clip-path="url(#clipPath422)"><text
           transform="matrix(1,0,0,-1,584.69,174.6)"
           style="font-variant:normal;font-weight:normal;font-size:16.96800041px;font-family:Calibri;-inkscape-font-specification:Calibri;writing-mode:lr-tb;fill:#000000;fill-opacity:1;fill-rule:nonzero;stroke:none"
           id="text426"><tspan
             x="0 8.6027756 17.375233"
             y="0"
             sodipodi:role="line"
             id="tspan428">80%</tspan></text>
</g></g><g
       id="g430"><g
         id="g432"
         clip-path="url(#clipPath434)"><text
           transform="matrix(1,0,0,-1,649.87,174.6)"
           style="font-variant:normal;font-weight:normal;font-size:16.96800041px;font-family:Calibri;-inkscape-font-specification:Calibri;writing-mode:lr-tb;fill:#000000;fill-opacity:1;fill-rule:nonzero;stroke:none"
           id="text438"><tspan
             x="0 8.6027756 17.358265"
             y="0"
             sodipodi:role="line"
             id="tspan440">90%</tspan></text>
</g></g><g
       id="g442"><g
         id="g444"
         clip-path="url(#clipPath446)"><text
           transform="matrix(1,0,0,-1,710.71,174.6)"
           style="font-variant:normal;font-weight:normal;font-size:16.96800041px;font-family:Calibri;-inkscape-font-specification:Calibri;writing-mode:lr-tb;fill:#000000;fill-opacity:1;fill-rule:nonzero;stroke:none"
           id="text450"><tspan
             x="0 8.6027756 17.375233 25.978008"
             y="0"
             sodipodi:role="line"
             id="tspan452">100%</tspan></text>
</g></g></g></svg>