<?xml version="1.0" encoding="iso-8859-1"?>
<!-- Generator: Adobe Illustrator 12.0.1, SVG Export Plug-In . SVG Version: 6.00 Build 51448)  -->
<!DOCTYPE svg PUBLIC "-//W3C//DTD SVG 1.1//EN" "http://www.w3.org/Graphics/SVG/1.1/DTD/svg11.dtd" [
	<!ENTITY ns_svg "http://www.w3.org/2000/svg">
	<!ENTITY ns_xlink "http://www.w3.org/1999/xlink">
	<!ENTITY st0 "opacity:0.5;fill:none;stroke:#000000;stroke-width:0.5;">
	<!ENTITY st1 "fill:#FFFF00;">
	<!ENTITY st2 "fill:none;">
	<!ENTITY st3 "fill:none;stroke:#000000;stroke-width:2;">
	<!ENTITY st4 "fill:#D9F2FF;">
]>
<svg  version="1.1" xmlns="&ns_svg;" xmlns:xlink="&ns_xlink;" width="336.666" height="480.334" viewBox="0 0 336.666 480.334"
	 style="overflow:visible;enable-background:new 0 0 336.666 480.334;" xml:space="preserve">
<g id="Fill">
	<g>
		<rect x="4.333" y="4.667" style="&st4;" width="328.667" height="472"/>
		<polygon style="&st1;" points="4.333,318 4.333,102.499 28.633,103.909 52.604,108.154 75.895,115.231 98.112,125.146 
			118.864,137.779 137.713,153.005 154.673,170.186 166.111,187.449 175.646,205.535 182.613,224.646 186.847,244.478 
			188.261,264.667 187.867,275.334 186.682,286 184.673,296.667 182.154,307.333 178.176,318 		"/>
	</g>
</g>
<g id="Lines">
	<g>
		<line style="&st0;" x1="16.81" y1="476.667" x2="16.81" y2="228.667"/>
		<line style="&st0;" x1="29.286" y1="476.667" x2="29.286" y2="228.667"/>
		<line style="&st0;" x1="41.762" y1="476.667" x2="41.762" y2="228.667"/>
		<line style="&st0;" x1="54.238" y1="476.667" x2="54.238" y2="228.667"/>
		<line style="&st0;" x1="66.714" y1="476.667" x2="66.714" y2="228.667"/>
		<line style="&st0;" x1="79.191" y1="476.667" x2="79.191" y2="228.667"/>
		<line style="&st0;" x1="91.667" y1="476.667" x2="91.667" y2="318"/>
		<line style="&st0;" x1="4.333" y1="264.667" x2="333" y2="264.667"/>
		<line style="&st0;" x1="131.889" y1="476.667" x2="106.084" y2="318"/>
		<line style="&st0;" x1="172.111" y1="476.667" x2="120.503" y2="318"/>
		<line style="&st0;" x1="212.334" y1="476.667" x2="134.922" y2="318"/>
		<line style="&st0;" x1="255.667" y1="476.667" x2="149.34" y2="318"/>
		<line style="&st0;" x1="292.777" y1="476.667" x2="163.758" y2="318"/>
		<line style="&st0;" x1="91.667" y1="228.667" x2="333" y2="4.667"/>
		<path style="&st0;" d="M333,4.667"/>
		<line style="&st0;" x1="137.713" y1="153.005" x2="263.959" y2="4.667"/>
		<line style="&st0;" x1="118.864" y1="137.779" x2="207.526" y2="4.667"/>
		<line style="&st0;" x1="98.112" y1="125.146" x2="159.323" y2="4.667"/>
		<line style="&st0;" x1="75.895" y1="115.231" x2="116.574" y2="4.667"/>
		<line style="&st0;" x1="52.604" y1="108.154" x2="77.385" y2="4.667"/>
		<line style="&st0;" x1="28.633" y1="103.909" x2="40.35" y2="4.667"/>
		<line style="&st0;" x1="178.101" y1="317.923" x2="333" y2="476.667"/>
		<line style="&st0;" x1="182.154" y1="307.333" x2="333.001" y2="418.086"/>
		<line style="&st0;" x1="184.679" y1="296.667" x2="333.002" y2="371.995"/>
		<line style="&st0;" x1="186.682" y1="286" x2="332.999" y2="333.004"/>
		<line style="&st0;" x1="187.867" y1="275.334" x2="333" y2="297.95"/>
		<line style="&st0;" x1="4.333" y1="318" x2="178.176" y2="318"/>
		<line style="&st0;" x1="4.333" y1="307.333" x2="181.814" y2="307.333"/>
		<line style="&st0;" x1="4.334" y1="296.667" x2="184.673" y2="296.667"/>
		<line style="&st0;" x1="4.334" y1="286" x2="186.682" y2="286"/>
		<line style="&st0;" x1="4.334" y1="275.334" x2="187.854" y2="275.334"/>
		<line style="&st0;" x1="91.667" y1="235.867" x2="166.111" y2="187.449"/>
		<line style="&st0;" x1="91.667" y1="243.066" x2="175.646" y2="205.535"/>
		<line style="&st0;" x1="91.667" y1="250.267" x2="182.613" y2="224.646"/>
		<line style="&st0;" x1="91.667" y1="257.467" x2="186.847" y2="244.478"/>
		<line style="&st0;" x1="166.111" y1="187.449" x2="333" y2="56.667"/>
		<line style="&st0;" x1="175.646" y1="205.535" x2="333" y2="108.667"/>
		<line style="&st0;" x1="182.613" y1="224.646" x2="333" y2="160.667"/>
		<line style="&st0;" x1="186.847" y1="244.478" x2="333" y2="212.667"/>
		<line style="&st0;" x1="28.633" y1="103.909" x2="16.81" y2="228.667"/>
		<line style="&st0;" x1="29.286" y1="228.667" x2="52.604" y2="108.154"/>
		<line style="&st0;" x1="41.762" y1="228.667" x2="75.895" y2="115.231"/>
		<line style="&st0;" x1="54.238" y1="228.667" x2="98.112" y2="125.146"/>
		<line style="&st0;" x1="66.714" y1="228.667" x2="118.864" y2="137.779"/>
		<line style="&st0;" x1="79.191" y1="228.667" x2="137.713" y2="153.005"/>
		<line style="&st0;" x1="91.667" y1="235.867" x2="4.333" y2="235.867"/>
		<line style="&st0;" x1="91.667" y1="243.066" x2="4.333" y2="243.066"/>
		<line style="&st0;" x1="91.667" y1="250.267" x2="4.333" y2="250.267"/>
		<line style="&st0;" x1="91.667" y1="257.467" x2="4.333" y2="257.467"/>
		<line style="&st0;" x1="91.667" y1="264.667" x2="4.333" y2="264.667"/>
		<path style="&st0;" d="M4.333,102.499"/>
		<polyline style="&st0;" points="4.333,123.527 26.663,124.702 48.717,128.239 70.206,134.138 90.8,142.399 110.173,152.927 
			127.959,165.616 144.172,179.933 153.704,195.519 161.65,211.791 167.456,228.917 170.983,246.643 172.162,264.667 
			171.834,275.334 170.846,286 169.172,296.667 167.073,307.333 163.758,318 		"/>
		<polyline style="&st0;" points="4.333,144.555 24.692,145.495 44.831,148.325 64.517,153.043 83.487,159.652 101.481,168.075 
			118.206,178.226 133.671,189.68 141.296,203.589 147.653,218.045 152.298,233.187 155.12,248.807 156.063,264.667 
			155.801,275.334 155.01,286 153.671,296.667 151.992,307.333 149.34,318 		"/>
		<polyline style="&st0;" points="4.333,165.583 22.721,166.288 40.944,168.41 58.828,171.949 76.175,176.906 92.789,183.223 
			108.452,190.836 123.17,199.427 128.889,211.658 133.657,224.3 137.14,237.456 139.257,250.972 139.964,264.667 139.767,275.334 
			139.174,286 138.17,296.667 136.911,307.333 134.921,318 		"/>
		<polyline style="&st0;" points="4.333,186.611 20.751,187.081 37.059,188.496 53.14,190.855 68.863,194.16 84.098,198.371 
			98.698,203.446 112.669,209.174 116.481,219.728 119.66,230.556 121.982,241.727 123.394,253.137 123.865,264.667 
			123.734,275.334 123.338,286 122.669,296.667 121.83,307.333 120.503,318 		"/>
		<polyline style="&st0;" points="4.333,207.639 18.78,207.874 33.172,208.582 47.451,209.761 61.551,211.414 75.406,213.519 
			88.945,216.057 102.168,218.92 104.074,227.797 105.664,236.811 106.825,245.996 107.53,255.302 107.766,264.667 107.7,275.334 
			107.503,286 107.168,296.667 106.748,307.333 106.085,318 		"/>
		<polyline style="&st0;" points="4.333,228.667 16.81,228.667 29.286,228.667 41.762,228.667 54.238,228.667 66.714,228.667 
			79.191,228.667 91.667,228.667 91.667,235.867 91.667,243.066 91.667,250.267 91.667,257.467 91.667,264.667 91.667,275.334 
			91.667,286 91.667,296.667 91.667,307.333 91.667,318 		"/>
		<polyline style="&st0;" points="4.333,102.499 28.633,103.909 52.604,108.154 75.895,115.231 98.112,125.146 118.864,137.779 
			137.713,153.005 154.673,170.186 166.111,187.449 175.646,205.535 182.613,224.646 186.847,244.478 188.261,264.667 
			187.867,275.334 186.682,286 184.673,296.667 182.154,307.333 178.176,318 		"/>
		<polyline style="&st0;" points="4.333,94.346 29.61,95.638 54.668,99.53 79.285,106.018 103.213,115.105 126.252,126.686 
			148.233,140.644 169.533,156.393 180.019,176.551 188.759,197.462 195.146,219.314 199.026,241.826 200.322,264.667 
			199.962,277.219 198.875,289.917 197.033,302.944 194.725,316.562 191.078,331.222 		"/>
		<polyline style="&st0;" points="4.333,86.193 30.586,87.369 56.733,90.906 82.674,96.804 108.314,105.066 133.641,115.594 
			158.754,128.282 184.395,142.6 193.926,165.652 201.872,189.39 207.678,213.983 211.206,239.176 212.384,264.667 212.056,279.104 
			211.068,293.834 209.395,309.222 207.295,325.792 203.979,344.444 		"/>
		<polyline style="&st0;" points="4.333,78.041 31.562,79.098 58.798,82.282 86.064,87.59 113.415,95.026 141.03,104.5 
			169.274,115.92 199.255,128.806 207.833,154.753 214.984,181.318 220.21,208.651 223.385,236.524 224.445,264.667 224.15,280.988 
			223.261,297.751 221.755,315.499 219.866,335.021 216.882,357.667 		"/>
		<polyline style="&st0;" points="4.333,69.888 32.539,70.828 60.864,73.658 89.455,78.376 118.516,84.986 148.418,93.408 
			179.795,103.559 214.115,115.013 221.74,143.855 228.098,173.246 232.742,203.32 235.564,233.874 236.507,264.667 
			236.245,282.873 235.454,301.668 234.116,321.776 232.437,344.251 229.784,370.889 		"/>
		<polyline style="&st0;" points="4.334,61.736 33.516,62.558 62.929,65.035 92.844,69.163 123.617,74.946 155.807,82.316 
			190.315,91.198 228.976,101.22 235.648,132.957 241.211,165.173 245.274,197.988 247.744,231.223 248.568,264.667 
			248.339,284.758 247.647,305.585 246.477,328.054 245.007,353.48 242.686,384.111 		"/>
		<polyline style="&st0;" points="4.333,53.583 34.492,54.288 64.994,56.41 96.234,59.949 128.717,64.906 163.195,71.223 
			200.836,78.836 243.837,87.426 249.556,122.058 254.323,157.101 257.807,192.656 259.924,228.572 260.631,264.667 
			260.434,286.643 259.841,309.502 258.838,334.331 257.578,362.71 255.588,397.334 		"/>
		<polyline style="&st0;" points="4.333,45.43 35.468,46.018 67.059,47.786 99.624,50.735 133.818,54.866 170.584,60.13 
			211.356,66.474 258.697,73.633 263.463,111.159 267.437,149.028 270.339,187.325 272.103,225.921 272.692,264.667 
			272.528,288.526 272.033,313.419 271.198,340.608 270.148,371.938 268.49,410.556 		"/>
		<polyline style="&st0;" points="4.333,37.277 36.444,37.748 69.125,39.162 103.014,41.521 138.919,44.826 177.973,49.037 
			221.877,54.113 273.558,59.84 277.37,100.261 280.549,140.956 282.871,181.993 284.282,223.271 284.754,264.667 284.622,290.411 
			284.227,317.336 283.559,346.886 282.719,381.168 281.392,423.778 		"/>
		<polyline style="&st0;" points="4.333,29.125 37.421,29.478 71.189,30.538 106.404,32.308 144.02,34.786 185.361,37.944 
			232.397,41.751 288.418,46.046 291.277,89.362 293.662,132.884 295.403,176.662 296.462,220.62 296.815,264.667 296.717,292.296 
			296.42,321.253 295.92,353.163 295.289,390.397 294.294,437 		"/>
		<polyline style="&st0;" points="4.333,20.972 38.397,21.207 73.254,21.915 109.794,23.094 149.121,24.746 192.749,26.852 
			242.918,29.39 303.278,32.253 305.186,78.464 306.774,124.811 307.936,171.33 308.641,217.969 308.877,264.667 308.812,294.181 
			308.613,325.17 308.28,359.44 307.86,399.627 307.196,450.223 		"/>
		<polyline style="&st0;" points="4.333,12.819 39.374,12.937 75.32,13.291 113.184,13.88 154.222,14.707 200.138,15.759 
			253.438,17.028 318.14,18.46 319.093,67.565 319.887,116.739 320.468,165.999 320.82,215.318 320.938,264.667 320.905,296.065 
			320.806,329.087 320.642,365.718 320.431,408.856 320.098,463.444 		"/>
		<line style="&st0;" x1="191.078" y1="331.222" x2="4.333" y2="331.222"/>
		<line style="&st0;" x1="203.979" y1="344.444" x2="4.333" y2="344.444"/>
		<line style="&st0;" x1="216.882" y1="357.667" x2="4.333" y2="357.667"/>
		<line style="&st0;" x1="229.784" y1="370.889" x2="4.333" y2="370.889"/>
		<line style="&st0;" x1="242.686" y1="384.111" x2="4.333" y2="384.111"/>
		<line style="&st0;" x1="255.588" y1="397.334" x2="4.333" y2="397.334"/>
		<line style="&st0;" x1="268.49" y1="410.556" x2="4.333" y2="410.556"/>
		<line style="&st0;" x1="281.392" y1="423.778" x2="4.333" y2="423.778"/>
		<line style="&st0;" x1="294.294" y1="437" x2="4.333" y2="437"/>
		<line style="&st0;" x1="307.196" y1="450.223" x2="4.333" y2="450.223"/>
		<line style="&st0;" x1="320.098" y1="463.444" x2="4.333" y2="463.444"/>
		<rect x="4.333" y="4.667" style="&st0;" width="328.667" height="472"/>
	</g>
</g>
<g id="Basic_structure">
	<g>
		<rect x="4.333" y="4.667" style="&st3;" width="328.667" height="472"/>
		<polygon style="&st3;" points="4.333,318 4.333,102.499 28.633,103.909 52.604,108.154 75.895,115.231 98.112,125.146 
			118.864,137.779 137.713,153.005 154.673,170.186 166.111,187.449 175.646,205.535 182.613,224.646 186.847,244.478 
			188.261,264.667 187.867,275.334 186.682,286 184.673,296.667 182.154,307.333 178.176,318 		"/>
		<polyline style="&st3;" points="4.333,228.667 91.667,228.667 91.667,476.667 		"/>
		<line style="&st3;" x1="4.333" y1="264.667" x2="333" y2="264.667"/>
		<line style="&st3;" x1="91.667" y1="228.667" x2="333" y2="4.667"/>
		<line style="&st3;" x1="178.176" y1="318" x2="333" y2="476.667"/>
	</g>
</g>
<g id="Layer_4">
	<rect style="&st2;" width="336.666" height="480.334"/>
</g>
</svg>
